<svg width="22" height="22" viewBox="0 0 22 22" fill="none" xmlns="http://www.w3.org/2000/svg">
<path d="M20.9998 11C20.9998 5.4774 16.5225 1 10.9999 1C5.47737 1 1 5.4774 1 11C1 16.5226 5.47737 21 10.9999 21C16.5225 21 20.9998 16.5226 20.9998 11Z" stroke="#0C70F2" stroke-width="2" stroke-miterlimit="10"/>
<mask id="path-2-inside-1_122_47" fill="white">
<path d="M20.4743 7.02952C19.7005 7.03436 19.7766 8.47044 18.8125 7.79287C18.4545 7.54181 18.2343 7.17686 17.7847 7.06587C17.392 6.96893 16.9897 7.06974 16.6018 7.13711C16.1609 7.21369 15.6381 7.2481 15.3037 7.58398C14.9804 7.90725 14.8093 8.34103 14.4653 8.66625C13.7998 9.29632 13.5189 9.98407 13.9497 10.8749C14.3641 11.7313 15.2309 12.1961 16.1662 12.135C17.0851 12.0735 18.0396 11.5374 18.0131 12.8805C18.0035 13.3554 18.1022 13.685 18.2473 14.1265C18.3817 14.5337 18.3725 14.9282 18.4034 15.3484C18.4602 16.1336 18.6038 17.0137 18.9912 17.7073L19.714 16.6817C19.8031 16.5547 19.9896 16.3769 20.0339 16.2271C20.1125 15.962 19.9578 15.5064 19.94 15.2093C19.9222 14.9122 19.9308 14.6112 19.8855 14.3141C19.8219 13.8978 19.5772 13.5076 19.5434 13.0961C19.4813 12.3299 19.6205 11.7182 19.0336 11.0775C18.467 10.4595 17.6363 10.3112 16.8427 10.4367C16.4428 10.4998 14.8329 10.7586 15.4791 9.83915C15.6068 9.65837 15.8299 9.51006 15.9734 9.338C16.0982 9.18824 16.2067 8.91294 16.3531 8.79614C16.4996 8.67933 17.1723 8.54508 17.365 8.60469C17.5577 8.66431 17.7587 8.94396 17.9259 9.06804C18.2348 9.30208 18.5953 9.45771 18.9768 9.52169C19.635 9.61862 21.0111 9.2338 21.0005 8.38465C20.9986 7.97753 20.6228 7.41047 20.4743 7.02952ZM12.8554 14.0165C12.5986 12.9289 11.1295 12.5654 10.3373 11.9756C9.88197 11.6363 9.47674 11.1124 8.87877 11.0697C8.60315 11.0499 8.37235 11.11 8.09914 11.0387C7.84858 10.9738 7.65199 10.8381 7.38505 10.8734C6.88634 10.9394 6.5717 11.4754 6.03589 11.4027C5.52754 11.3339 5.00378 10.7358 4.88813 10.2487C4.73973 9.6225 5.23217 9.41943 5.75979 9.36369C5.97999 9.34042 6.22718 9.31522 6.43871 9.39616C6.71721 9.50036 6.84876 9.77469 7.09883 9.9133C7.56767 10.1716 7.66259 9.75869 7.5908 9.33994C7.48335 8.71278 7.35807 8.45687 7.91411 8.02551C8.29959 7.72793 8.62917 7.51273 8.5675 6.97814C8.53088 6.66407 8.35982 6.52207 8.51931 6.20945C8.64025 5.97148 8.97225 5.75677 9.18859 5.61476C9.74705 5.24835 11.5809 5.27549 10.8317 4.24993C10.6115 3.94895 10.2053 3.41097 9.81981 3.3373C9.33796 3.2457 9.12403 3.78659 8.78818 4.02505C8.44125 4.27174 7.76571 4.55188 7.4183 4.17045C6.95091 3.65718 7.72812 3.48852 7.90014 3.13034C8.07216 2.77217 7.50166 2.09509 7.19617 1.92352L5.75979 3.54377C5.71853 3.81511 5.73289 4.09208 5.802 4.35764C5.87111 4.62319 5.9935 4.87172 6.16165 5.08793C6.44738 5.45773 6.90224 5.57647 6.92296 6.0815C6.9432 6.56617 6.86803 6.81432 6.55291 7.15505C6.41654 7.30045 6.32017 7.50692 6.1814 7.64311C6.01131 7.80935 6.07443 7.75846 5.80894 7.80402C5.30975 7.88884 4.88476 8.0197 4.40243 8.15347C3.59872 8.3769 3.52451 7.05617 3.15831 6.53806L1.9537 7.51661C1.94069 7.67703 2.15126 7.9722 2.2086 8.14668C2.5377 9.14365 3.20168 9.91476 3.63052 10.8686C4.08201 11.8786 5.29433 11.5985 5.82966 12.4835C6.30476 13.2687 5.79737 14.2627 6.15298 15.0847C6.41124 15.6814 7.02029 15.8117 7.44046 16.2479C7.86979 16.6885 7.86063 17.2914 7.92616 17.8648C8.00006 18.5392 8.12001 19.2077 8.28514 19.8655C8.34344 20.0928 8.39692 20.3933 8.5516 20.5809C8.6576 20.7098 9.02139 20.8208 8.87443 20.8635C9.0797 20.8974 9.44542 21.0903 9.61647 20.9488C9.84197 20.7626 9.78174 20.1898 9.82077 19.931C9.93786 19.1603 10.3214 18.4067 10.8389 17.8299C11.3501 17.2609 12.0507 16.8756 12.4825 16.2305C12.9031 15.6014 13.0299 14.7527 12.8554 14.0165ZM11.2465 15.2922C10.9574 15.8113 10.3137 16.1588 9.8998 16.5712C9.78753 16.6832 9.54853 17.0709 9.40783 16.9871C9.30713 16.927 9.27292 16.4239 9.23581 16.3085C9.04441 15.7277 8.679 15.2206 8.18973 14.8569C8.03891 14.7421 7.665 14.5928 7.57875 14.4353C7.48238 14.2642 7.56911 13.8605 7.57249 13.6743C7.57779 13.4029 7.45492 12.9517 7.52141 12.705C7.59851 12.4205 7.4501 12.5921 7.70307 12.5359C7.83654 12.5058 8.38777 12.6032 8.554 12.6381C8.81805 12.6934 8.96357 12.8586 9.17173 13.0259C9.7191 13.4674 10.3219 13.8091 10.9353 14.1474C11.4104 14.412 11.5501 14.7469 11.2465 15.2922ZM7.89291 1.93806C8.12131 2.16246 8.33621 2.42806 8.67687 2.45035C8.99923 2.47216 9.30327 2.29671 9.58467 2.51724C9.8969 2.75957 10.1219 3.06637 10.5363 3.14198C10.9372 3.21516 11.3617 2.97961 11.461 2.56716C11.5573 2.17409 11.3497 1.74661 11.3371 1.35209C11.3371 1.29732 11.3665 1.05402 11.3289 1.01282C11.301 0.981801 11.0678 1.0167 11.0321 1.01767C10.771 1.02542 10.5105 1.04352 10.2506 1.07195C9.30319 1.17509 8.37537 1.4142 7.49539 1.78199C7.61248 1.86342 7.75944 1.89589 7.89291 1.93806ZM16.1777 4.66093C16.5868 4.66093 17.0022 4.47676 16.8702 4.00081C16.7593 3.60193 16.5704 3.16912 16.1108 3.38431C15.8183 3.52099 15.4039 3.86898 15.3697 4.21407C15.3307 4.60568 15.905 4.66093 16.1777 4.66093ZM15.8511 6.74356C16.2688 6.9951 16.8885 6.87684 17.2036 6.5177C17.4498 6.2366 17.5948 5.74853 18.0377 5.74902C18.2326 5.74861 18.4199 5.82539 18.559 5.96276C18.7421 6.15323 18.706 6.33208 18.745 6.57053C18.8322 7.10609 19.4032 6.60107 19.5521 6.39363C19.6485 6.25841 19.779 6.05775 19.7352 5.88182C19.6947 5.71751 19.5039 5.54255 19.4191 5.39182C19.1714 4.95561 18.9676 4.44816 18.5966 4.09581C18.2396 3.75654 17.8006 3.7958 17.4619 4.14815C17.1843 4.43895 16.862 4.66917 16.6721 5.02298C16.5382 5.27162 16.3873 5.39036 16.1161 5.45482C15.9667 5.4902 15.7961 5.50329 15.6708 5.6041C15.322 5.88036 15.5205 6.54388 15.8511 6.74356Z"/>
</mask>
<path d="M20.4743 7.02952C19.7005 7.03436 19.7766 8.47044 18.8125 7.79287C18.4545 7.54181 18.2343 7.17686 17.7847 7.06587C17.392 6.96893 16.9897 7.06974 16.6018 7.13711C16.1609 7.21369 15.6381 7.2481 15.3037 7.58398C14.9804 7.90725 14.8093 8.34103 14.4653 8.66625C13.7998 9.29632 13.5189 9.98407 13.9497 10.8749C14.3641 11.7313 15.2309 12.1961 16.1662 12.135C17.0851 12.0735 18.0396 11.5374 18.0131 12.8805C18.0035 13.3554 18.1022 13.685 18.2473 14.1265C18.3817 14.5337 18.3725 14.9282 18.4034 15.3484C18.4602 16.1336 18.6038 17.0137 18.9912 17.7073L19.714 16.6817C19.8031 16.5547 19.9896 16.3769 20.0339 16.2271C20.1125 15.962 19.9578 15.5064 19.94 15.2093C19.9222 14.9122 19.9308 14.6112 19.8855 14.3141C19.8219 13.8978 19.5772 13.5076 19.5434 13.0961C19.4813 12.3299 19.6205 11.7182 19.0336 11.0775C18.467 10.4595 17.6363 10.3112 16.8427 10.4367C16.4428 10.4998 14.8329 10.7586 15.4791 9.83915C15.6068 9.65837 15.8299 9.51006 15.9734 9.338C16.0982 9.18824 16.2067 8.91294 16.3531 8.79614C16.4996 8.67933 17.1723 8.54508 17.365 8.60469C17.5577 8.66431 17.7587 8.94396 17.9259 9.06804C18.2348 9.30208 18.5953 9.45771 18.9768 9.52169C19.635 9.61862 21.0111 9.2338 21.0005 8.38465C20.9986 7.97753 20.6228 7.41047 20.4743 7.02952ZM12.8554 14.0165C12.5986 12.9289 11.1295 12.5654 10.3373 11.9756C9.88197 11.6363 9.47674 11.1124 8.87877 11.0697C8.60315 11.0499 8.37235 11.11 8.09914 11.0387C7.84858 10.9738 7.65199 10.8381 7.38505 10.8734C6.88634 10.9394 6.5717 11.4754 6.03589 11.4027C5.52754 11.3339 5.00378 10.7358 4.88813 10.2487C4.73973 9.6225 5.23217 9.41943 5.75979 9.36369C5.97999 9.34042 6.22718 9.31522 6.43871 9.39616C6.71721 9.50036 6.84876 9.77469 7.09883 9.9133C7.56767 10.1716 7.66259 9.75869 7.5908 9.33994C7.48335 8.71278 7.35807 8.45687 7.91411 8.02551C8.29959 7.72793 8.62917 7.51273 8.5675 6.97814C8.53088 6.66407 8.35982 6.52207 8.51931 6.20945C8.64025 5.97148 8.97225 5.75677 9.18859 5.61476C9.74705 5.24835 11.5809 5.27549 10.8317 4.24993C10.6115 3.94895 10.2053 3.41097 9.81981 3.3373C9.33796 3.2457 9.12403 3.78659 8.78818 4.02505C8.44125 4.27174 7.76571 4.55188 7.4183 4.17045C6.95091 3.65718 7.72812 3.48852 7.90014 3.13034C8.07216 2.77217 7.50166 2.09509 7.19617 1.92352L5.75979 3.54377C5.71853 3.81511 5.73289 4.09208 5.802 4.35764C5.87111 4.62319 5.9935 4.87172 6.16165 5.08793C6.44738 5.45773 6.90224 5.57647 6.92296 6.0815C6.9432 6.56617 6.86803 6.81432 6.55291 7.15505C6.41654 7.30045 6.32017 7.50692 6.1814 7.64311C6.01131 7.80935 6.07443 7.75846 5.80894 7.80402C5.30975 7.88884 4.88476 8.0197 4.40243 8.15347C3.59872 8.3769 3.52451 7.05617 3.15831 6.53806L1.9537 7.51661C1.94069 7.67703 2.15126 7.9722 2.2086 8.14668C2.5377 9.14365 3.20168 9.91476 3.63052 10.8686C4.08201 11.8786 5.29433 11.5985 5.82966 12.4835C6.30476 13.2687 5.79737 14.2627 6.15298 15.0847C6.41124 15.6814 7.02029 15.8117 7.44046 16.2479C7.86979 16.6885 7.86063 17.2914 7.92616 17.8648C8.00006 18.5392 8.12001 19.2077 8.28514 19.8655C8.34344 20.0928 8.39692 20.3933 8.5516 20.5809C8.6576 20.7098 9.02139 20.8208 8.87443 20.8635C9.0797 20.8974 9.44542 21.0903 9.61647 20.9488C9.84197 20.7626 9.78174 20.1898 9.82077 19.931C9.93786 19.1603 10.3214 18.4067 10.8389 17.8299C11.3501 17.2609 12.0507 16.8756 12.4825 16.2305C12.9031 15.6014 13.0299 14.7527 12.8554 14.0165ZM11.2465 15.2922C10.9574 15.8113 10.3137 16.1588 9.8998 16.5712C9.78753 16.6832 9.54853 17.0709 9.40783 16.9871C9.30713 16.927 9.27292 16.4239 9.23581 16.3085C9.04441 15.7277 8.679 15.2206 8.18973 14.8569C8.03891 14.7421 7.665 14.5928 7.57875 14.4353C7.48238 14.2642 7.56911 13.8605 7.57249 13.6743C7.57779 13.4029 7.45492 12.9517 7.52141 12.705C7.59851 12.4205 7.4501 12.5921 7.70307 12.5359C7.83654 12.5058 8.38777 12.6032 8.554 12.6381C8.81805 12.6934 8.96357 12.8586 9.17173 13.0259C9.7191 13.4674 10.3219 13.8091 10.9353 14.1474C11.4104 14.412 11.5501 14.7469 11.2465 15.2922ZM7.89291 1.93806C8.12131 2.16246 8.33621 2.42806 8.67687 2.45035C8.99923 2.47216 9.30327 2.29671 9.58467 2.51724C9.8969 2.75957 10.1219 3.06637 10.5363 3.14198C10.9372 3.21516 11.3617 2.97961 11.461 2.56716C11.5573 2.17409 11.3497 1.74661 11.3371 1.35209C11.3371 1.29732 11.3665 1.05402 11.3289 1.01282C11.301 0.981801 11.0678 1.0167 11.0321 1.01767C10.771 1.02542 10.5105 1.04352 10.2506 1.07195C9.30319 1.17509 8.37537 1.4142 7.49539 1.78199C7.61248 1.86342 7.75944 1.89589 7.89291 1.93806ZM16.1777 4.66093C16.5868 4.66093 17.0022 4.47676 16.8702 4.00081C16.7593 3.60193 16.5704 3.16912 16.1108 3.38431C15.8183 3.52099 15.4039 3.86898 15.3697 4.21407C15.3307 4.60568 15.905 4.66093 16.1777 4.66093ZM15.8511 6.74356C16.2688 6.9951 16.8885 6.87684 17.2036 6.5177C17.4498 6.2366 17.5948 5.74853 18.0377 5.74902C18.2326 5.74861 18.4199 5.82539 18.559 5.96276C18.7421 6.15323 18.706 6.33208 18.745 6.57053C18.8322 7.10609 19.4032 6.60107 19.5521 6.39363C19.6485 6.25841 19.779 6.05775 19.7352 5.88182C19.6947 5.71751 19.5039 5.54255 19.4191 5.39182C19.1714 4.95561 18.9676 4.44816 18.5966 4.09581C18.2396 3.75654 17.8006 3.7958 17.4619 4.14815C17.1843 4.43895 16.862 4.66917 16.6721 5.02298C16.5382 5.27162 16.3873 5.39036 16.1161 5.45482C15.9667 5.4902 15.7961 5.50329 15.6708 5.6041C15.322 5.88036 15.5205 6.54388 15.8511 6.74356Z" fill="#0C70F2" stroke="#0C70F2" stroke-width="2" mask="url(#path-2-inside-1_122_47)"/>
</svg>
